<?xml version="1.0" standalone="no"?>
<!DOCTYPE svg PUBLIC "-//W3C//DTD SVG 20010904//EN"
 "http://www.w3.org/TR/2001/REC-SVG-20010904/DTD/svg10.dtd">
<svg version="1.0" xmlns="http://www.w3.org/2000/svg"
 width="271.000000pt" height="271.000000pt" viewBox="0 0 271.000000 271.000000"
 preserveAspectRatio="xMidYMid meet">
<metadata>
Created by potrace 1.11, written by Peter Selinger 2001-2013
</metadata>
<g transform="translate(0.000000,271.000000) scale(0.100000,-0.100000)"
fill="#000000" stroke="none">
<path d="M1136 2648 c-14 -20 -16 -91 -16 -578 0 -487 2 -558 16 -578 14 -21
22 -22 139 -22 113 0 125 2 135 19 6 12 10 120 10 279 l0 260 48 43 c110 98
179 120 257 83 61 -29 65 -49 65 -361 0 -236 2 -282 16 -301 14 -21 22 -22
138 -22 81 0 126 4 134 12 16 16 17 564 1 640 -35 167 -143 264 -316 283 -35
4 -83 2 -119 -5 -59 -12 -165 -59 -195 -86 -8 -8 -19 -14 -22 -14 -4 0 -7 75
-7 166 0 95 -4 174 -10 185 -10 17 -22 19 -135 19 -117 0 -125 -1 -139 -22z"/>
<path d="M375 2400 c-193 -35 -315 -142 -360 -317 -19 -72 -19 -241 -1 -310
45 -167 156 -273 325 -309 78 -16 240 -18 329 -4 136 22 231 80 250 153 18 66
-24 97 -141 104 -78 5 -84 4 -113 -20 -45 -38 -76 -47 -158 -47 -121 0 -186
50 -203 154 l-6 36 326 0 c373 0 357 -4 357 83 0 185 -75 342 -197 414 -98 57
-283 86 -408 63z m205 -212 c54 -28 77 -59 89 -120 l8 -48 -190 0 -190 0 6 40
c3 22 15 56 28 76 44 71 162 96 249 52z"/>
<path d="M2410 2384 c-145 -63 -176 -257 -57 -361 46 -40 97 -56 163 -51 172
14 255 224 141 355 -59 68 -166 92 -247 57z"/>
<path d="M1458 1270 c-159 -27 -274 -114 -255 -192 8 -32 43 -47 136 -60 82
-11 103 -7 154 34 39 32 176 39 232 12 40 -19 65 -62 65 -113 l0 -29 -192 -4
c-167 -4 -202 -8 -259 -27 -143 -49 -213 -136 -213 -265 -1 -174 112 -273 345
-301 82 -10 192 10 277 50 63 30 72 32 72 16 0 -39 31 -51 137 -51 84 0 103 3
116 18 15 16 17 54 17 319 0 272 -2 307 -20 365 -35 114 -124 190 -261 223
-69 16 -268 19 -351 5z m332 -616 l0 -65 -55 -25 c-67 -31 -170 -49 -220 -40
-49 10 -95 55 -95 94 0 33 32 79 64 92 11 5 85 9 164 9 l142 1 0 -66z"/>
<path d="M130 1252 l-22 -18 82 -263 c99 -321 110 -350 165 -426 72 -102 142
-156 218 -170 20 -4 37 -9 37 -12 0 -16 -34 -65 -62 -88 -32 -27 -33 -27 -138
-20 -89 6 -108 5 -119 -9 -17 -20 -25 -86 -17 -131 11 -57 49 -69 221 -69 126
-1 145 1 192 23 70 31 137 105 179 196 29 62 131 410 258 873 25 92 25 93 5
113 -16 16 -33 19 -114 19 -114 0 -150 -14 -163 -63 -65 -232 -165 -583 -167
-585 -2 -2 -19 3 -38 12 -71 29 -92 74 -212 459 -45 143 -47 149 -80 163 -52
21 -197 19 -225 -4z"/>
</g>
</svg>
